<?xml version="1.0" encoding="utf-8"?>
<!-- Generator: Adobe Illustrator 19.1.0, SVG Export Plug-In . SVG Version: 6.00 Build 0)  -->
<svg version="1.1" id="Laag_1" xmlns="http://www.w3.org/2000/svg" xmlns:xlink="http://www.w3.org/1999/xlink" x="0px" y="0px"
	 viewBox="0 0 960 560" style="enable-background:new 0 0 960 560;" xml:space="preserve">
<style type="text/css">
	.st0{fill:#22ACD6;}
	.st1{fill:#8AC3DF;}
	.st2{font-family:'ProximaNova-Bold';}
	.st3{font-size:104.2021px;}
</style>
<g>
	<path class="st0" d="M141.6,203.1V92.5h58.2c21.1,0,31.8,13.4,31.8,28.2c0,13.9-8.6,23.2-19.1,25.4c11.8,1.8,21.2,13.3,21.2,27.2
		c0,16.6-11.1,29.8-32.2,29.8H141.6z M207.6,124.8c0-7-5-12.1-12.9-12.1h-29.5v24h29.5C202.6,136.7,207.6,131.8,207.6,124.8z
		 M209.7,169.9c0-7-5-12.9-14.3-12.9h-30.3v25.7h30.3C204.4,182.7,209.7,177.9,209.7,169.9z"/>
	<path class="st0" d="M251.5,203.1V92.5H275v89.9h46.8v20.7H251.5z"/>
	<path class="st0" d="M328.4,147.9c0-33.3,24.4-57.2,57.7-57.2c33.5,0,57.9,23.9,57.9,57.2s-24.4,57.2-57.9,57.2
		C352.8,205.1,328.4,181.2,328.4,147.9z M419.8,147.9c0-20.7-13.3-36.3-33.7-36.3c-20.4,0-33.5,15.6-33.5,36.3
		c0,20.6,13.1,36.3,33.5,36.3C406.5,184.2,419.8,168.4,419.8,147.9z"/>
	<path class="st0" d="M455.3,147.9c0-35,26.5-57.2,58.9-57.2c23,0,37.5,11.6,45.8,24.7L540.3,126c-5-7.8-14.4-14.4-26.2-14.4
		c-20.1,0-34.7,15.4-34.7,36.3c0,20.9,14.6,36.3,34.7,36.3c9.8,0,19.1-4.3,23.5-8.5v-13.3h-29.2v-20.6h52.7v42.4
		c-11.3,12.6-27,20.9-47.1,20.9C481.8,205.2,455.3,182.7,455.3,147.9z"/>
</g>
<text transform="matrix(1 0 0 1 567.2303 184.1338)" class="st1 st2 st3">IT</text>
</svg>
